<svg xmlns="http://www.w3.org/2000/svg" viewBox="0 0 388.54 522.05"><defs><style>.b13b6c2b-7c15-4f7d-9fca-856bb1e2cbcd{stroke:#fff;stroke-width:5px;}.b13b6c2b-7c15-4f7d-9fca-856bb1e2cbcd,.e9d0f189-db85-4d8a-841f-8f942b46d7a1{stroke-miterlimit:10;}.e9d0f189-db85-4d8a-841f-8f942b46d7a1{stroke:#000;stroke-width:2px;}.db60c2fc-0c57-4e5e-913c-cee4e8d2bcf5{font-size:39.02px;font-family:PTMono-Bold, PT Mono;font-weight:700;}</style></defs><title>Asset 2</title><g id="749dacc4-65de-4c3d-83e1-a6fe43c8d862" data-name="Layer 2"><g id="957ee0da-8df4-49b4-89be-f40782ddaef0" data-name="Layer 1"><path class="b13b6c2b-7c15-4f7d-9fca-856bb1e2cbcd" d="M193.88,519.15c-58.81,0-117.63-.52-176.43.39-13.7.21-15.56-4.44-14.8-16.21,2.84-44.07,20.42-80.21,56.17-106.59,13-9.62,27.51-17.3,40.68-26.76,9.23-6.63,20-10.68,25.51-23.27,3.06-7,15.61-9.81,23.86-14.56,11.47-6.6,12.21-16.9,1.22-24.27-22.78-15.29-42.74-33.73-61.36-53.73-2.6-2.79-6.77-5.67-7.06-8.8C79.93,226.75,68,215.5,55.72,203.15c-10.24-10.29-12.07-25.69-12.19-40.29-.05-6.22.31-14.44,5.37-17.23,13.59-7.49,11.88-20.42,13.63-32C79.08,3.73,196.68-24.16,262.83,27.75c11.2,8.79,23.8,16,36.38,22.76,10.55,5.67,21.8,6.85,32.34-1.36,8.77-6.84,11.83-1.89,12.49,6.63,1.9,24.86-8.78,44.42-26.18,61-3.45,3.29-7.21,6.27-10.94,9.25-4.33,3.47-3.09,7.9-1.55,11.77,1.76,4.43,5.43,2,8.6,1.34,23.27-4.64,34.14,3.94,33,27.33-1,21.52-8,40.61-29,50.61-5.33,2.54-5.39,5.8-5.62,10-.64,11.54-5.65,20.82-13.59,29.14-17.87,18.73-36.56,36.42-58.07,51-12.26,8.31-11.71,18.9,1.25,25.93a117.29,117.29,0,0,1,32.11,25.46c11.41,12.66,28.93,19.83,43.81,29.36,42.94,27.51,65.94,66.32,68.12,117.67.45,10.72-1.67,13.91-12.8,13.8C313.42,518.87,253.64,519.15,193.88,519.15Zm150.64-11.49c7.17,0,14.36-.42,21.49.11,8.09.6,9.36-2.87,8.61-10.14-3.5-34.28-17-63.28-43.52-85.82-13.18-11.19-27.94-20-42.61-28.92-10.92-6.68-21.92-19.66-32.28-19.08-11.37.64-22.44,13.11-32.91,21.36-8.2,6.46-14.35,6.17-20-2.51s-11.26-8.92-16.93,0-11.9,8.77-19.83,2.13c-8.39-7-17.81-12.81-26.64-19.34-4.11-3-7.36-4.65-12.58-1.08-18.49,12.68-37.64,24.4-56.13,37.09-27.87,19.13-46.71,44.78-53.8,78.26-5.92,27.95-5.76,28,22.07,28h7.17c27,0,27,0,27.39-26.38,0-1.91,0-3.82.05-5.73.11-3.45.22-6.83,5.06-6.94,5.2-.11,6.42,2.94,6.37,7.36-.07,6.21.68,12.51-.14,18.61-1.48,11,3,13.41,13.5,13.32,59.24-.51,118.48-.24,177.72-.24,27.1,0,27,0,27.82-27.33.14-4.64-2.53-11.84,6.19-11.56,7.77.25,4.95,6.89,5.09,11C316.65,507.67,316.55,507.67,344.52,507.67ZM301.23,215.73c-.05-26.23-4.34-48.82-6.52-71.6-.42-4.41-.54-9.93-8.33-6.94-25,9.6-49.51,5-74.19-2.4-26.06-7.76-52.44-14.36-80.12-12-19.72,1.69-34.51,12.46-37.11,29.82-3.6,24.05-6.25,48.28-6.25,72.69,0,7.43,1.82,14.14,7,19.74,21.86,23.56,45.12,45.32,73.88,60.54,17,9,33.34,9,50.42.07,24-12.63,43.5-30.8,63.18-49C296.37,244.48,304.48,231,301.23,215.73ZM313.9,208c17.4-13.16,21.35-29.31,20.9-47-.23-8.87-6.33-12.54-14.71-11.52-7.57.92-11.86,4.6-10.68,13.43C311.28,176.9,312.26,191,313.9,208ZM80,166.24c.67-11.73-2.68-16.09-12-17s-13.09,4.69-13.19,12.88c-.19,14.64,3.26,28.28,13.61,39.31,1.47,1.57,4.08,3.15,6,3,2.92-.29,2.47-3.61,2.53-5.81C77.25,187.2,77.51,175.8,80,166.24ZM194.61,352.56c4.37.29,26.91-23.95,26.3-28.16-.44-3-2.07-4.32-4.82-3.21-14.38,5.75-28.64,5.13-43-.06-3-1.07-4.06,1.23-4.15,4C168.79,328.55,191,352.31,194.61,352.56Zm54.26-1.7c-19.2-13.11-19.2-13.11-33.93,1.48a70.27,70.27,0,0,1-6.13,6c-5.11,3.95-3.92,7.27-.31,11.82,3.94,5,7,4.76,11.68,1.24C229.27,364.51,238.71,358.08,248.87,350.86Zm-108.47-.12c10.52,7.53,20.17,14.38,29.74,21.31,3.53,2.56,6.83,3.58,9.52-.89,1.8-3,7.3-5.64,4-9.42-6.5-7.56-13.08-16.25-21.61-20.49C154.75,337.6,147.94,346.12,140.4,350.74Z"/><g id="513d5607-602a-4218-afaa-1ca520a56d0a" data-name="EgaLmq.tif"><path class="e9d0f189-db85-4d8a-841f-8f942b46d7a1" d="M241.26,218c-5.11-1-10.2-2-15.33-2.83a7.72,7.72,0,0,1-6.1-4.73c-4.68-9.76-9.87-19.35-11.09-30.34-.32-2.84-1.64-3.44-4.14-3.72a78.83,78.83,0,0,0-17.31,0c-2.78.29-4.23,1.11-4.53,4-1.05,10.29-6.08,19.18-10.1,28.44-1.88,4.33-4.92,6.37-9.39,7S154.42,217.26,150,218H128.27c-5.7-.79-11.4-1.6-17.1-2.37-3.57-.48-5.7-2.11-6.48-6-1.27-6.37-3.12-12.62-4.69-18.93a8.12,8.12,0,0,0-2.55-4.38c-3.93-3.67-3.13-9.09-2.59-13.65.39-3.26,4.42-4.37,7.75-4.64,28.27-2.3,56.56-5.07,84.7,1.29,8.75,2,17-1.11,25.57-2.05a330.28,330.28,0,0,1,76.89.88c3,.37,6.92,1.44,7,4.83.06,4.44,1.64,9.81-2.44,13.19a8.19,8.19,0,0,0-2.8,4.82c-1.63,6.11-3.36,12.21-4.58,18.4-.8,4-2.94,5.82-6.8,6.29-5.72.69-11.42,1.53-17.13,2.3Zm7.59-49.92c-10.24-.14-21.6.37-33,1-4.16.24-5.63,1.89-5.32,6.05,1,12.91,6.1,24.4,11.74,35.75.94,1.89,2.79,2.24,4.51,2.59,17.94,3.6,35.91,3,53.88.14a4.41,4.41,0,0,0,4.09-3.63c2.85-11.37,6.11-22.64,7.24-34.39.38-3.92-.67-5.43-4.68-5.87A317.72,317.72,0,0,0,248.84,168.09Zm-106.59,0a345.09,345.09,0,0,0-36.34,1.36c-4.82.39-6.74,1.94-6.18,7.34,1.18,11.42,4.48,22.31,7.11,33.38.54,2.28,2.06,3.15,4.24,3.49,17.83,2.82,35.64,3.4,53.45-.11,2.15-.42,4.06-1.09,5.19-3.38,5.35-10.93,10-22,11.4-34.3.53-4.64-1-6.56-5.76-6.81C164.33,168.52,153.31,167.94,142.26,168.11Z"/></g><text class="db60c2fc-0c57-4e5e-913c-cee4e8d2bcf5" transform="translate(209.3 493.04)">LING</text></g></g></svg>