<svg xmlns="http://www.w3.org/2000/svg" viewBox="0 0 382 513.29"><defs><style>.c693c04a-68a4-44ee-bbd1-9fcd1c3747dd{stroke:#fff;stroke-miterlimit:10;stroke-width:5px;}.c178befa-2047-4f27-9753-5b512a9c36ea{font-size:39.02px;font-family:PTMono-Bold, PT Mono;font-weight:700;}</style></defs><title>Asset 4</title><g id="8d7f174d-3854-48c6-87b1-0526e21f69f2" data-name="Layer 2"><g id="437be45a-e5e6-40ae-b061-78e4901814e0" data-name="Layer 1"><g id="66cdab78-7aa5-4b11-9758-0a79081da705" data-name="4JStau.tif"><path d="M133.81,214.73c-17.16-2.75-24.55-14.91-28.9-30-1.05-3.64-1.9-7.36-3.23-10.91-5-13.29-5-13.27,4.78-22.66,12.71-12.16,37.85-17,53.83-9.4,6.37,3,13.35,5.5,18.46,10.81,2,2.05,4.22,1.22,6,.46a15.5,15.5,0,0,1,13,0c2.17.93,4.17.7,6.72-1.19C220.83,139.7,239,134.32,259,141c9,3,16.65,9.06,23.39,15.84,2.86,2.88,2.36,7.13.92,10.32-3.84,8.45-5.26,17.66-8.89,26.17-4.8,11.24-12.51,18.8-24.74,21.17-1.64.32-11.87,2.32-21.18,0C217,211.68,210.13,204.16,205.07,194c-4-8.08-5.78-16.65-7.05-25.42-.56-3.84-2.31-6.3-6.52-6.35-4.37-.06-6.41,2.2-7.08,6.4-.82,5.16-1.51,10.42-3.12,15.36-4.73,14.55-11.74,26.8-28.5,30.7A46.26,46.26,0,0,1,133.81,214.73Zm108.1-71.1c-9.25-.19-17.87,1.41-25.4,6.1C208,155,202,162.1,203.12,173.18c1.22,12.51,5.51,23.14,15.2,31.89,10.47,9.47,32.13,9.48,42.21.1,12-11.2,14.77-25.09,14.65-40.39-.06-7.14-3.84-12-9.63-15.13A45.63,45.63,0,0,0,241.91,143.63Zm-100.67-.12a46.77,46.77,0,0,0-24.52,6.17c-5.65,3.1-9.12,7.88-9.35,14.75a63,63,0,0,0,6.32,30.49c9.49,19.34,34.24,22.24,47.92,12.38,12.78-9.21,18.4-22.85,17.7-38.76-.23-5.29-2.74-9.44-6.48-13.28C164.07,146.25,153,144,141.24,143.5Z"/></g><path class="c693c04a-68a4-44ee-bbd1-9fcd1c3747dd" d="M2.5,482.23c3.83-4.22,2.7-9.8,3.83-14.71,8.87-38.51,32-66.45,64.79-86.86,25.16-15.66,49.74-32.09,73.29-50.06,14.63-11.16,14.62-20-.19-30.16-19.47-13.38-36.57-29.44-53.12-46.2-8.85-9-16.24-18.33-15.47-31.82.29-5.07-2.86-6.87-6.89-9.2-19.11-11.06-30.51-40-24.63-61.22.74-2.68,1.36-6.67,3.22-7.55,14.08-6.67,11.34-20.07,13-31.48C72.76,25.53,137.89-4.35,211.5,3.78c71.62,7.91,107.63,48.86,113.12,121.28.31,4.07-.38,8.25,3.14,11.83,20.64,21,15.19,60.47-11.13,74.85-7.29,4-10.18,8.15-10.65,15.76-.57,9.3-5.2,16.78-11.52,23.53-17.39,18.6-35.83,35.95-56.9,50.39-12.8,8.77-12.87,19.27-.36,28.86,23.89,18.32,49,34.86,74.52,50.77,42,26.14,65,63.76,67.67,113.78.65,12-1.08,16-14.36,16-120.84-.56-241.68-.33-362.52-.33Zm337.19,16.94c5.17,0,10.41-.52,15.5.11,11,1.34,14.27-1.89,12.78-13.77-4.67-37.23-21.7-66.8-52.17-88.18-26.9-18.87-55.71-35-81.48-55.54-4-3.18-6-3.44-9.7,1.61-19.87,27.41-47.58,27.6-66.52.43-3.81-5.46-5.89-5.66-10.58-2-24.37,19.25-51,35.25-76.8,52.4-32.83,21.8-51.43,52.6-56.26,91.85-1.1,8.94-.6,14.18,10.79,13.28,12.62-1,25.39-.61,38.06-.09,7.58.31,10-2.6,9.48-9.82-.48-7-.12-14.1-.06-21.15,0-3.86,0-7.8,5.67-7.54,5.35.24,5.6,3.92,5.58,7.9,0,6.11.62,12.3-.12,18.32-1.25,10.14,2.86,12.45,12.57,12.38,58.77-.44,117.55-.22,176.33-.22,26,0,25.84,0,26.54-26.36.12-4.49-2.85-11.74,5.57-11.84,8.71-.1,5.35,7.36,5.48,11.68.76,26.5.62,26.51,26.53,26.51ZM296.38,213.57c-1.64-39.14-9-71.36-23.2-102-3.58-7.73-7.31-9.78-15.93-5.69-43.76,20.76-88,20.53-131.72-.06-8.91-4.2-12.25-1.42-15.72,6.11C93.42,147.5,86.58,185,87.26,224c.1,5.79,1.66,11.21,5.64,15.57,22.29,24.41,46.24,46.74,76.14,61.87,15.54,7.86,30.47,7.28,45.72-.71C239.25,287.85,259,269.17,279,250.57,291.74,238.71,298.38,225.52,296.38,213.57ZM166.89,315c-.32,3.66-.77,6.4-.76,9.15,0,16.18,10.69,27.41,25.61,27.14,15.2-.28,26.48-13.53,25.33-29.38-.31-4.22-.69-8.14-6.07-5.77C196.32,322.58,181.87,319.46,166.89,315ZM53.53,162.71c1.16,12.13,3.78,24.4,12.65,34.29,1.73,1.93,4.72,4.19,6.86,3.95,3.45-.39,2.69-4.43,2.66-7a135,135,0,0,1,2.95-30.58c2.36-10.73-2.79-16.05-13.08-16.53C55,146.38,54,154.13,53.53,162.71Zm276,1.94c.08-9.81-1.33-18.23-13.12-17.76-11.43.46-13.71,8.25-11.4,17.63,2.5,10.15,1.89,20.39,2.44,30.61.12,2.15.28,5.25,1.63,6.2,3,2.09,5.12-1,6.92-2.89C325.31,188.89,328,176.67,329.54,164.65Z"/><text class="c178befa-2047-4f27-9753-5b512a9c36ea" transform="translate(245.02 488.66)">LY</text></g></g></svg>