<svg xmlns="http://www.w3.org/2000/svg" viewBox="0 0 278.11 284.5"><defs><style>.\30 59d20e8-39c2-4d1c-a8e9-316c2d277aac{fill:#ffce00;}</style></defs><title>Asset 7</title><g id="789fe8a4-311a-4ae0-91ae-1587070596fe" data-name="Layer 2"><g id="cb04a2b7-98e4-4991-aa84-345211aa2c21" data-name="Layer 1"><g id="c2933e5f-ccb7-4cc0-a9f8-c59508fb59b6" data-name="EgaLmq.tif"><path class="059d20e8-39c2-4d1c-a8e9-316c2d277aac" d="M178.16,216.93c-5.11-1-10.2-2-15.33-2.83a7.72,7.72,0,0,1-6.1-4.73c-4.68-9.76-9.87-19.35-11.09-30.34-.32-2.84-1.64-3.44-4.14-3.72a78.83,78.83,0,0,0-17.31,0c-2.78.29-4.23,1.11-4.53,4-1.05,10.29-6.08,19.18-10.1,28.44-1.88,4.33-4.92,6.37-9.39,7s-8.85,1.46-13.27,2.21H65.18c-5.7-.79-11.4-1.6-17.1-2.37-3.57-.48-5.7-2.11-6.48-6-1.27-6.37-3.12-12.62-4.69-18.93a8.12,8.12,0,0,0-2.55-4.38c-3.93-3.67-3.13-9.09-2.59-13.65.39-3.26,4.42-4.37,7.75-4.64,28.27-2.3,56.56-5.07,84.7,1.29,8.75,2,17-1.11,25.57-2.05a330.28,330.28,0,0,1,76.89.88c3,.37,6.92,1.44,7,4.83.06,4.44,1.64,9.81-2.44,13.19a8.19,8.19,0,0,0-2.8,4.82c-1.63,6.11-3.36,12.21-4.58,18.4-.8,4-2.94,5.82-6.8,6.29-5.72.69-11.42,1.53-17.13,2.3ZM185.74,167c-10.24-.14-21.6.37-33,1-4.16.24-5.63,1.89-5.32,6.05,1,12.91,6.1,24.4,11.74,35.75.94,1.89,2.79,2.24,4.51,2.59,17.94,3.6,35.91,3,53.88.14a4.41,4.41,0,0,0,4.09-3.63c2.85-11.37,6.11-22.64,7.24-34.39.38-3.92-.67-5.43-4.68-5.87A317.72,317.72,0,0,0,185.74,167ZM79.16,167a345.09,345.09,0,0,0-36.34,1.36c-4.82.39-6.74,1.94-6.18,7.34,1.18,11.42,4.48,22.31,7.11,33.38.54,2.28,2.06,3.15,4.24,3.49,17.83,2.82,35.64,3.4,53.45-.11,2.15-.42,4.06-1.09,5.19-3.38,5.35-10.93,10-22,11.4-34.3.53-4.64-1-6.56-5.76-6.81C101.23,167.44,90.21,166.86,79.16,167Z"/><path class="059d20e8-39c2-4d1c-a8e9-316c2d277aac" d="M200,217.93l-22,0-4.55-.86c-3.52-.67-7.17-1.37-10.76-2a8.67,8.67,0,0,1-6.84-5.28q-.8-1.67-1.61-3.33c-4.16-8.57-8.47-17.42-9.57-27.33-.24-2.16-1-2.58-3.27-2.84a77.3,77.3,0,0,0-17.09,0c-2.64.28-3.42,1-3.64,3.14-.86,8.36-4.31,15.88-7.65,23.14-.85,1.86-1.71,3.72-2.52,5.59-1.94,4.48-5.17,6.89-10.17,7.58-3.07.42-6.19,1-9.21,1.51l-4,.7H65l-5.19-.72q-6-.83-11.91-1.65c-4.19-.57-6.51-2.72-7.32-6.77-.86-4.31-2-8.64-3.11-12.84-.53-2-1.06-4-1.57-6a7.17,7.17,0,0,0-2.26-3.9c-4.17-3.9-3.5-9.53-3-14l.05-.45c.37-3.14,3.45-5.1,8.66-5.52l4.08-.33c26.54-2.18,54-4.44,80.93,1.65,5.93,1.34,11.58.28,17.56-.83,2.5-.47,5.09-1,7.68-1.24a332.65,332.65,0,0,1,77.13.88c6.43.8,7.81,3.6,7.85,5.81,0,.89.09,1.81.17,2.79.31,3.83.66,8.17-3,11.18a7.25,7.25,0,0,0-2.47,4.31l-.78,2.91c-1.36,5-2.76,10.25-3.79,15.43-.86,4.37-3.23,6.55-7.67,7.09-4,.48-8.1,1-12,1.6l-5.07.7Zm-9.55-2h9.41l5-.69.76-.11Q197.78,215.89,190.41,215.93Zm-12.16,0H189a137,137,0,0,1-15.87-1l.68.13Zm-113,0H86.82l3.94-.68,1.86-.33a150.48,150.48,0,0,1-33.75.12l1.26.18ZM182.15,168c-9.84,0-20.25.52-29.32,1.05-1.85.11-3,.5-3.65,1.23s-.87,1.92-.73,3.75c1,13,6.28,24.6,11.64,35.38.71,1.43,2.12,1.71,3.76,2,16.3,3.27,33.81,3.32,53.57.14a3.42,3.42,0,0,0,3.28-2.89q.7-2.79,1.42-5.58c2.39-9.3,4.85-18.91,5.8-28.67.34-3.47-.41-4.4-3.79-4.78A315.75,315.75,0,0,0,185.76,168h0ZM73.37,168c-11.27,0-22,.74-30.47,1.43-2.4.2-3.8.68-4.53,1.56s-1,2.38-.74,4.67c.89,8.57,3,17,5.08,25.17.68,2.69,1.36,5.38,2,8.08.39,1.64,1.35,2.41,3.43,2.74,19.65,3.11,37,3.07,53.1-.11,2.17-.43,3.59-1,4.48-2.84,5-10.26,9.87-21.48,11.31-34,.24-2.1,0-3.47-.68-4.31s-2-1.28-4.13-1.39c-10.87-.56-22-1.15-33-1h0C77.2,168,75.28,168,73.37,168Zm35.93,37.88q-.75,1.59-1.51,3.16a13.49,13.49,0,0,0,.85-1.66Zm23.39-32a78.27,78.27,0,0,1,8.92.51c2.31.26,4.6.84,5,4.61,1,9.29,5.06,17.77,9,26-4.45-9.43-8.38-19.53-9.21-30.72-.18-2.4.21-4.06,1.22-5.22s2.62-1.76,5-1.91c10.21-.6,22.12-1.19,33-1,10.35-.11,19.52.13,28.15.73a324.33,324.33,0,0,0-64,.47c-2.51.28-5.06.75-7.53,1.21-5.92,1.11-12,2.25-18.37.82q-4.13-.93-8.28-1.61a5.11,5.11,0,0,1,2.17,1.47c1.09,1.29,1.45,3.14,1.14,5.83-1.1,9.56-4.13,18.35-7.72,26.52,3.24-7,6.55-14.32,7.36-22.26.37-3.65,2.44-4.61,5.42-4.93A82.13,82.13,0,0,1,132.69,173.81ZM39.49,168c-2,.17-6.4.88-6.74,3.76l-.05.45c-.51,4.28-1.09,9.14,2.34,12.35a9.08,9.08,0,0,1,2.84,4.87l.27,1.07a126.67,126.67,0,0,1-2.51-14.65c-.3-2.87.08-4.82,1.19-6.16A5.49,5.49,0,0,1,39.49,168Zm186.89.09c2.88.85,3.89,2.83,3.53,6.57a129.19,129.19,0,0,1-2.45,15,9.1,9.1,0,0,1,3.11-5.26c2.83-2.35,2.55-5.81,2.25-9.48-.08-1-.16-2-.17-2.93,0-2.06-2.08-3.36-6.09-3.86ZM83.16,166c9.36,0,18.78.47,28,.94-16-2.13-32-1.81-48-.8,5.16-.18,10.55-.25,16-.12Q81.16,166,83.16,166Z"/></g><path d="M1.7,133c-9-25.17,19.4-81.34,39-99.5C61.2,14.5,76.2.57,128.7,0c46.5-.5,87.57,57,119.5,51,8-1.5,25.82-13.63,29.5-7,2.5,4.5-3.61,105.62-101.5,99.5-48-3-58.47-23.76-91-23-64.5,1.5-48,34-55.5,33.5C21,153.42,4.64,141.25,1.7,133Z"/><ellipse cx="133.7" cy="269" rx="9.5" ry="15.5"/></g></g></svg>