<svg xmlns="http://www.w3.org/2000/svg" viewBox="0 0 278.17 321"><defs><style>.c414ccb9-de23-4be2-90d6-1afb258a988d{fill:#9c4ae5;}</style></defs><title>Asset 11</title><g id="0cbd23ac-8a5d-4648-ac8d-4367a1b52448" data-name="Layer 2"><g id="7b6d507b-7c45-4d1f-a558-11f8d1634aa7" data-name="Layer 1"><path class="c414ccb9-de23-4be2-90d6-1afb258a988d" d="M179.85,278.92c-9.82,0-19.75-.92-22.54-1.87-6.31-2.15-17-15.6-18.45-19.06-3.29-7.59-5.29-29.32-3.2-34.69h0c1.37-3.52,15.71-17,20.78-18.12.27-.06,30.21-4.42,34.86-2.43,2.92,1.25,19.84,13,21.76,18,2.47,6.34,5.66,23.55,5.34,27.28-.81,9.38-16.3,27.93-19.84,29.06C194.32,278.42,187.11,278.92,179.85,278.92Zm-39.54-53.8c-1.37,3.55,0,23.76,3.13,30.88,1.29,3,11.09,14.81,15.48,16.31,3.67,1.25,28.65,2.91,38,0,2.69-1.71,15.88-17.25,16.53-24.78.24-2.81-2.74-19.21-5-25-1.12-2.65-15.83-13.81-19.07-15.19-3.17-1-29,2.13-31.85,2.73C154.41,210.72,141.56,222.37,140.31,225.12Z"/><path class="c414ccb9-de23-4be2-90d6-1afb258a988d" d="M81.4,278.92c-7.3,0-14.54-.5-18.8-1.86C59,275.93,43.48,257.38,42.66,248c-.33-3.74,2.88-21,5.37-27.29C50,215.78,67,204,69.9,202.74c4.66-2,34.76,2.38,35,2.43,5.09,1.08,19.51,14.59,20.89,18.11,2.11,5.38.1,27.11-3.22,34.7-1.5,3.45-12.21,16.9-18.54,19.05C101.25,278,91.28,278.92,81.4,278.92Zm-17.13-6.58c9.36,2.88,34.49,1.22,38.18,0C106.87,270.81,116.72,259,118,256c3.1-7.12,4.52-27.32,3.15-30.87-1.26-2.75-14.19-14.4-17.28-15.06-2.86-.59-28.84-3.7-32.09-2.7-3.2,1.36-18,12.52-19.12,15.17-2.28,5.82-5.28,22.21-5,25C48.3,255.1,61.57,270.64,64.27,272.34Z"/><path class="c414ccb9-de23-4be2-90d6-1afb258a988d" d="M135.52,234a5.65,5.65,0,0,0-4-2,7.39,7.39,0,0,0-5.45,1.79l-3.35-3.71a12.27,12.27,0,0,1,9.22-3.06,10.59,10.59,0,0,1,7.55,3.88Z"/><rect class="c414ccb9-de23-4be2-90d6-1afb258a988d" x="42.25" y="220.61" width="6.04" height="5"/><rect class="c414ccb9-de23-4be2-90d6-1afb258a988d" x="212.02" y="223.61" width="6.04" height="5"/><path d="M23.2,256s-8-64,41-98c51.87-36,113-16,139,8,33.71,31.12,27,90,27,90s56-7.42,47-102c-9-95-223-167-272.92,0C-11.94,208.26,23.2,256,23.2,256Z"/><circle cx="206.2" cy="42" r="42"/><path d="M130.7,321c-6.9,0-12.5-6.62-12.5-14.79s6,11.68,12.9,11.68,12.1-19.85,12.1-11.68S137.6,321,130.7,321Z"/></g></g></svg>