<svg xmlns="http://www.w3.org/2000/svg" viewBox="0 0 379.42 507.89"><defs><style>.fa2cdc21-15c8-4400-a1c3-4c08de5ac2ea{stroke:#fff;stroke-miterlimit:10;stroke-width:5px;}.\34 f2f4f86-d4c7-4132-83e1-41aeee761743{font-size:39.02px;font-family:PTMono-Bold, PT Mono;font-weight:700;}</style></defs><title>Asset 3</title><g id="e36177d1-fffb-40da-af14-53abb49a8206" data-name="Layer 2"><g id="98bf0266-07fa-4900-90e6-557344334f70" data-name="Layer 1"><g id="1f31be9c-51f8-402b-a5e8-176125bd1d8d" data-name="LITaVs.tif"><path class="fa2cdc21-15c8-4400-a1c3-4c08de5ac2ea" d="M376.92,505.11c-120.05,0-240.1-.18-360.15.28C5,505.44,1.9,502.51,2.59,490.8c2.69-45.74,21.56-82.41,59.52-108.28,27.27-18.58,55.69-35.47,81.71-55.89,13.53-10.62,13.52-19.41-.5-29.05-22-15.12-41.25-33.27-59.2-52.89-1.25-1.37-3.35-2.78-3.45-4.27C79.29,219.57,61.53,209.1,52,193.52c-10.63-17.41-16.69-37.53-.48-57,5.05-6.05-2-12.1-4.19-17.74C40.42,101.14,40.1,101,58.6,97.94c4.7-.78,6.68-2.18,5.83-7-1-5.49-1.71-11-2.66-16.52-1.2-6.92,1-11.6,8.63-10.25,10.13,1.8,11.05-3.9,10-11.14-1.77-12.62,3.44-17.44,15.65-14.62,11.15,2.58,17.55-1.8,20.14-12.68,2.8-11.72,9.39-13.6,19.31-7.47,6,3.69,10.84,4.26,13.24-4.56s8.3-8.82,14.79-3.86c7.28,5.57,13.42,6.87,19.12-2.51C187.09.11,192.8,1.52,196.87,8c5.39,8.56,11.23,7.57,18.1,2.17,7-5.52,12.91-5,15.8,4.26,2.35,7.54,6.71,8.07,12.43,4.25,11.6-7.74,18.1-3,20.92,8.84,2.49,10.51,9.18,12.74,18.47,10.91,12.55-2.48,18.55,1.66,16.55,15.22-.95,6.45-.5,12.29,9.14,10.56,8.42-1.5,10.74,3.36,9.4,10.88-.81,4.57-1.29,9.23-2.44,13.72-1.79,7,1,8.54,7.7,8.87,16.44.81,17,1.95,10.42,17-4.62,10.54-8,18.47,1,30.78,12.59,17.07-2.22,54.27-23,64.83-5.3,2.7-7.77,5.19-7.92,11.09-.3,11.76-6,21-14.08,29.38-16.85,17.45-34.41,34-54.52,47.7-12,8.19-12.4,19.07-.8,27.74,20.48,15.31,40.84,30.84,63.12,43.55,45.23,25.81,74.72,62.12,77.89,116.14.16,2.7,1.18,5.35,1.79,8Zm-40.77-11.17c5.58,0,11.25-.62,16.73.13,11.48,1.58,12.56-3.4,11.37-13.47-4.34-36.87-21.3-66.15-51.43-87.33-26.6-18.7-55.12-34.62-80.64-54.95-3.72-3-5.85-3.86-9.65,1.32-20.39,27.84-45.11,27.53-66.47-.48-2.88-3.77-4.67-5-8.57-1.73C120.24,360.11,88.29,376,60.3,397.59s-42.17,51.14-46.07,86c-.87,7.76,1,10.87,9.36,10.48,13.46-.62,27-.36,40.47-.09,6,.12,8.39-2,8.13-8.08-.33-7.89,0-15.82,0-23.72,0-3.63.9-6.41,5.41-6.26,4.15.14,5.67,2.41,5.66,6.26,0,6.51.63,13.09-.09,19.53-1.1,9.77,2.44,12.51,12.27,12.43,57.69-.46,115.39-.23,173.08-.23,26.85,0,26.79,0,27.78-27.31.15-4.2-2-10.27,5.39-10.57,7.77-.32,5.48,6,5.66,10.08C308.51,493.94,308.45,493.94,336.15,493.94ZM86.56,207.49c0,10.58-2,21.57,6.29,30.45,21,22.56,43.29,43.28,70.62,58.3,18.08,9.94,35,9.61,52.67-.48,27-15.39,49.19-36.43,70.25-58.86,5.14-5.47,6.16-12.39,6.43-19.39,1.4-36.87-6.88-71.73-21.69-105.31-3.88-8.8-6.32-16.84-17.21-17.18-65-2-59,1-131.5,3-12,.33-10.88,6.41-14.83,15.16C94.05,143.19,87.5,174.67,86.56,207.49ZM165.33,311.6c-.32,3.71-.76,6.42-.76,9.14,0,16,10.59,27.12,25.35,26.84,15-.28,26.2-13.4,25.05-29.09-.31-4.19-.71-8-6-5.69C194.45,319.18,180.15,316.2,165.33,311.6ZM78.25,159.31c1.86-8.62-3.2-12.07-10.23-13.63-6.65-1.48-11.8.32-14,7.59-3.39,11,4.5,36.56,13.41,43.51,4.67,3.64,7.56,3.47,7.63-3.16C75.15,182.06,75.57,170.54,78.25,159.31Zm223.24.69a189.11,189.11,0,0,1,2.93,32.95c0,2.48-1.08,6.46,2.59,6.7,2.15.14,5-2.23,6.67-4.17,9.29-10.62,12.55-23.45,12.46-37.19-.05-8.05-4-13.62-12.7-12.88C305.16,146.1,299.17,149.84,301.49,160Z"/></g><g id="cdb0b18e-62d4-40e5-86c1-e2b4d3b00e2b" data-name="gNt9i5.tif"><path d="M233.63,150.86c6.8,2.18,13.85,3.67,20.16,7.24,8.34,4.7,16.07,10,19.25,19.69,1,3.11,3.45,2.24,5.51,2.27,2.29,0,4.12.22,4,3.24s-2.23,2.72-4,2.47c-3.47-.49-5,.92-6.34,4.17-2.1,5.14-6.63,8.24-11.61,10.36a76.93,76.93,0,0,1-46.29,4.83c-15.58-3.17-22.29-16.46-16.54-32.47,1.71-4.77-.07-6.18-3.88-7.15a18.62,18.62,0,0,0-7.14-.37c-6.48.87-7.4,2.23-5.52,8.28,5.44,17.56-2.75,30.2-21.89,32.62a78.85,78.85,0,0,1-39.39-4.83c-6.54-2.59-12.26-6.36-14.61-13.47-.71-2.15-2.09-1.86-3.57-1.9-2-.06-4.12.31-5.93-1V180.7c2-.21,4-.48,6.06-.59,1.61-.09,2.81-.2,3.46-2.18,2.89-8.88,9.74-14.19,17.38-18.76,7-4.18,14.77-6.14,22.49-8.31h11.32c7,2.6,13.92,5.48,18.74,11.65,1.21,1.54,2.31.62,3.55,0a21.68,21.68,0,0,1,20.64-.13c1.4.7,2.61,1.64,4-.1,4.89-6.12,11.82-8.93,18.93-11.4Zm-83.92,50.58c5.5.07,10.95-.19,16.2-2.06,7.73-2.76,11.36-7.65,11.6-15.71.36-12.4-7.78-24-19.93-26.59-16.07-3.46-29.69,2.88-41.37,13.21-10.55,9.33-8.46,20,4.45,25.73C129.88,200.11,139.7,201.39,149.71,201.44Zm79.08-.21c2.22,0,4.47.18,6.67,0,9.24-.91,18.39-2.33,26.42-7.43,7.78-4.94,9.09-12.27,3.66-19.75a28.63,28.63,0,0,0-4.49-4.9,54.43,54.43,0,0,0-29.67-12.93,27.05,27.05,0,0,0-30.55,26c-.29,8.69,3.57,14.27,11.76,17.18C217.84,201.27,223.29,201.5,228.78,201.23Z"/></g><text class="4f2f4f86-d4c7-4132-83e1-41aeee761743" transform="translate(221.42 489.96)">TIM</text></g></g></svg>