<svg xmlns="http://www.w3.org/2000/svg" viewBox="0 0 261.42 300.19"><defs><style>.e3b69810-f5aa-4c95-be38-768e94f1a729{fill:#686868;}</style></defs><title>Asset 8</title><g id="1175639a-53c8-48fd-9c75-3ae66decc141" data-name="Layer 2"><g id="c1568701-fe72-4430-aa66-69b9d8c25e3c" data-name="Layer 1"><path d="M4.69,157.85c-6.33-22-7.48-79.24,4.29-95.52,3.76-5.2,16.87,5.62,20.51.24,4.53-6.7-4.51-31.3,0-38,4.24-6.33,19,5,24,0,2.6-2.64,1.67-15.8,4.61-17.44,5.3-2.94,14.49,17.33,20,15.64,3.32-1,5.26-14.64,8.59-15.64,5-1.52,13.05,15.24,18.13,14.22S114.89,0,120.13,0c3.88,0,7.6,14.92,11.45,15.64,4,.76,10.26-11.77,14.31-11.38,6.14.6,13.91,20.47,20,21.33,6.8,1,19.05-22.55,24.8-17.06C194.34,12,191.66,24,195,28c4.1,4.89,11.65-4.61,16.22-.74,4.33,3.66,2.87,18.56,7.63,20.74,6.34,2.9,13.41-20.43,19.56-16.71,4.69,2.84-1,24.92,2.86,29.86,2.7,3.49,11.92-4,14.31,0,13,21.59,1.7,90.6-8.59,115.19-3.29,7.87-15,22.16-21,19.91-12.23-4.55-13.92-55.95-24.8-65.42-32.55-28.31-120.12-32.77-150.73,0-9.4,10.07-4.32,58.08-14.79,65.42C26.57,202.63,8.66,171.65,4.69,157.85Z"/><g id="b3bc4859-d9ce-4665-8bdf-36d089d05990" data-name="gNt9i5.tif"><path class="e3b69810-f5aa-4c95-be38-768e94f1a729" d="M175.3,184c6.8,2.18,13.85,3.67,20.16,7.24,8.34,4.7,16.07,10,19.25,19.69,1,3.11,3.45,2.24,5.51,2.27,2.29,0,4.12.22,4,3.24s-2.23,2.72-4,2.47c-3.47-.49-5,.92-6.34,4.17-2.1,5.14-6.63,8.24-11.61,10.36a76.93,76.93,0,0,1-46.29,4.83c-15.58-3.17-22.29-16.46-16.54-32.47,1.71-4.77-.07-6.18-3.88-7.15a18.62,18.62,0,0,0-7.14-.37c-6.48.87-7.4,2.23-5.52,8.28,5.44,17.56-2.75,30.2-21.89,32.62a78.85,78.85,0,0,1-39.39-4.83C55,231.74,49.28,228,46.93,220.86c-.71-2.15-2.09-1.86-3.57-1.9-2-.06-4.12.31-5.93-1v-4.12c2-.21,4-.48,6.06-.59,1.61-.09,2.81-.2,3.46-2.18,2.89-8.88,9.74-14.19,17.38-18.76,7-4.18,14.77-6.14,22.49-8.31H98.13c7,2.6,13.92,5.48,18.74,11.65,1.21,1.54,2.31.62,3.55,0a21.68,21.68,0,0,1,20.64-.13c1.4.7,2.61,1.64,4-.1,4.89-6.12,11.82-8.93,18.93-11.4ZM91.37,234.58c5.5.07,10.95-.19,16.2-2.06,7.73-2.76,11.36-7.65,11.6-15.71.36-12.4-7.78-24-19.93-26.59-16.07-3.46-29.69,2.88-41.37,13.21-10.55,9.33-8.46,20,4.45,25.73C71.55,233.26,81.37,234.53,91.37,234.58Zm79.08-.21c2.22,0,4.47.18,6.67,0,9.24-.91,18.39-2.33,26.42-7.43,7.78-4.94,9.09-12.27,3.66-19.75a28.63,28.63,0,0,0-4.49-4.9A54.43,54.43,0,0,0,173,189.33a27.05,27.05,0,0,0-30.55,26c-.29,8.69,3.57,14.27,11.76,17.18C159.51,234.41,165,234.64,170.45,234.37Z"/></g><path d="M165.84,279.11c2.62,7.53-3.12,16.38-12.83,19.76s-19.71,0-22.34-7.51,1.81,3.81,11.52.43S163.21,271.58,165.84,279.11Z"/></g></g></svg>