<svg xmlns="http://www.w3.org/2000/svg" viewBox="0 0 384.32 513.77"><defs><style>.f8fbe209-e10f-42f6-baad-1aa7ede71507{fill:none;stroke:#000;}.\30 7f82d4c-d312-4bba-a24b-f633a03ff4bf,.f8fbe209-e10f-42f6-baad-1aa7ede71507{stroke-miterlimit:10;stroke-width:5px;}.\30 7f82d4c-d312-4bba-a24b-f633a03ff4bf{stroke:#fff;}.\32 94fcf00-ffa1-4a38-b444-aab8e6ac6d22{font-size:39.02px;font-family:PTMono-Bold, PT Mono;font-weight:700;}</style></defs><title>Asset 5</title><g id="f30352f2-225d-4594-b991-93bf305531b9" data-name="Layer 2"><g id="8e7f60bc-0a94-46ca-a2aa-e122b2a2d4e9" data-name="Layer 1"><path class="f8fbe209-e10f-42f6-baad-1aa7ede71507" d="M195.21,177.65c1.15-2.95,14.85-15.7,19-16.58,1.73-.37,29.9-4.05,33.35-2.58,3.18,1.36,19,12.9,20.41,16.58,2.35,6,5.46,22.84,5.18,26.16-.77,8.83-15.81,26.16-18.11,26.9-9.62,3.08-35.37,1.47-39.68,0-5.28-1.81-15.53-14.37-17-17.69C195.24,203.22,193.46,182.13,195.21,177.65Z"/><path class="f8fbe209-e10f-42f6-baad-1aa7ede71507" d="M180.71,177.65c-1.16-2.95-14.93-15.7-19.08-16.58-1.73-.37-30.06-4.05-33.53-2.58-3.19,1.36-19.08,12.9-20.52,16.58-2.37,6-5.49,22.84-5.2,26.16.77,8.83,15.9,26.16,18.21,26.9,9.68,3.08,35.56,1.47,39.89,0,5.31-1.81,15.61-14.37,17.06-17.69C180.68,203.22,182.47,182.13,180.71,177.65Z"/><path class="f8fbe209-e10f-42f6-baad-1aa7ede71507" d="M194.7,185.87c-3.09-3.88-9.41-3.88-13.13-.52"/><line class="f8fbe209-e10f-42f6-baad-1aa7ede71507" x1="100.47" y1="179.56" x2="106.51" y2="179.56"/><line class="f8fbe209-e10f-42f6-baad-1aa7ede71507" x1="269.24" y1="179.56" x2="275.28" y2="179.56"/><g id="007fcd47-20cb-439d-ad78-c89721fcddc9" data-name="YPmd3T.tif"><path class="07f82d4c-d312-4bba-a24b-f633a03ff4bf" d="M77.1,454.1a2.75,2.75,0,0,1-.39-.89l-2.89,3.08-.14.51Q75.35,455.4,77.1,454.1Z"/><path class="07f82d4c-d312-4bba-a24b-f633a03ff4bf" d="M75.42,463.61a2.32,2.32,0,0,1-2.11-3.22,2.88,2.88,0,0,1-.38-.52q-.7,3.16-1.18,6.36c1.54-.91,3.08-1.79,4.66-2.61Z"/><path class="07f82d4c-d312-4bba-a24b-f633a03ff4bf" d="M79.92,460.17a2.65,2.65,0,0,1,.19,1.66l.14-.06a2.37,2.37,0,0,1,3.13.89,34.84,34.84,0,0,1,2.45-6.71A48.29,48.29,0,0,0,79.92,460.17Z"/><path class="07f82d4c-d312-4bba-a24b-f633a03ff4bf" d="M77,408.07l-.41.35a2.72,2.72,0,0,1-.79.47l1.32,5.85c.49-.61,1-1.21,1.47-1.83a1.73,1.73,0,0,1,.08-1.39,2.49,2.49,0,0,1,0-.37,23.42,23.42,0,0,1,.6-2.68A2,2,0,0,1,77,408.07Z"/><path class="07f82d4c-d312-4bba-a24b-f633a03ff4bf" d="M82.13,492.07c-.82.26-1.65.53-2.46.81a2.19,2.19,0,0,1-2.24,2.22h-3.5c-2.22,0-3.29-3.28-1.18-4.35l.48-.22a2.56,2.56,0,0,1-1.49-3.1l-1.4-.18c0,2.82,0,5.65.07,8.48,0,.08,0,.14,0,.21,3.94,0,7.89.13,11.82.07a8.76,8.76,0,0,1-.12-1.72C82.12,493.57,82.13,492.82,82.13,492.07Z"/><path class="07f82d4c-d312-4bba-a24b-f633a03ff4bf" d="M310.19,406.32c-.33.31-.67.6-1,.88a2.2,2.2,0,0,1-1.07,1.59l0,0a2.14,2.14,0,0,1-.18.29,2.17,2.17,0,0,1,.42,1.2c.32-.18.63-.37,1-.54a2.57,2.57,0,0,1,.56-.21q.41-1.55.75-3.11Z"/><path class="07f82d4c-d312-4bba-a24b-f633a03ff4bf" d="M299.79,394a2.42,2.42,0,0,1,.81.27c3.81,2.07,7.22,4.76,10.8,7.19,0-.21.05-.42.07-.63-3.27-3.85-7.5-6.74-11.55-9.76A13.85,13.85,0,0,1,299.79,394Z"/><path class="07f82d4c-d312-4bba-a24b-f633a03ff4bf" d="M313.76,472.93a1.93,1.93,0,0,1,.63.22,110.37,110.37,0,0,0-.67-11c-.25.13-.49.27-.75.39A2.52,2.52,0,0,1,313,466a2.2,2.2,0,0,1-.35,2.34,1.81,1.81,0,0,1,1.07,2A5.85,5.85,0,0,0,313.76,472.93Z"/><path class="07f82d4c-d312-4bba-a24b-f633a03ff4bf" d="M299.82,405.08l-.52-.06a1.83,1.83,0,0,1-1.64-1.58q-.36,1.58-.7,3.17A15.27,15.27,0,0,1,299.82,405.08Z"/><path class="07f82d4c-d312-4bba-a24b-f633a03ff4bf" d="M307.67,448q-1.56,1.08-3.07,2.27a33.26,33.26,0,0,1,3.2-1.22,2.38,2.38,0,0,1,.43-.08C308,448.62,307.85,448.3,307.67,448Z"/><path class="07f82d4c-d312-4bba-a24b-f633a03ff4bf" d="M304,472.51a2.27,2.27,0,0,1-.25-3.25,2.52,2.52,0,0,1-.62-1.65,2.24,2.24,0,0,1-.29-.25c-.44.07-.9.1-1.35.14a82.41,82.41,0,0,1,.64,12.53,2.12,2.12,0,0,1,.3-.92c.67-1.09,1.41-2.13,2.16-3.17a1.94,1.94,0,0,1,0-.25A2.4,2.4,0,0,1,304,472.51Z"/><path class="07f82d4c-d312-4bba-a24b-f633a03ff4bf" d="M298.86,371.88c-6.92-3.9-2.83-7.4-.5-11.15,11.12-17.86,28.3-30,42.45-45.07,18.94-20.1,36.13-41.46,39.09-70.11a396,396,0,0,0-1.44-90.06C368.37,74.79,320.23,22.38,240.69,7c-39-7.55-77.08-8.91-107.4,23.85a10.23,10.23,0,0,1-6.07,2.78C103.86,35.86,87.37,49.33,77.8,69c-31.39,64.6-44.06,131.51-19.34,201.73C68.61,299.59,78,328.54,80.14,359.42c.74,10.55-1.72,17.3-11,23.23C44.92,398.11,25,418,14.38,445.32,9.66,457.44,6.72,470.24,3,482.74c0,5.16.62,10.41-.13,15.46-1.53,10.37,1.9,13.11,12.7,13.07,121.94-.46,243.89-.29,365.83-.29C381.37,448.3,353,402.4,298.86,371.88ZM223,347.62c2.12-2.79,1.73-11.38,9-6.75,5.06,3.21,11.45,5.61,8.58,14.94-6.78,22-2.78,42.4,11.7,60.85,5.53,7,3.54,12.82-5.88,15.56-17.69,5.15-35.63,8.21-54.07,8.19-20.8-.11-45.93,1.72-59.16-12.07-13.08-13.64-8.45-39.1-12.1-59.28-.88-4.89,1.22-8,5-10.58a117.86,117.86,0,0,0,11.32-8.35c9.59-8.32,16.28-13.32,27.26,1.37C179.33,371,208,367.4,223,347.62Zm-55.56-33.14c16.58,6.55,32.61,7.33,49-.35,2.67,13.74,1.21,25.27-10.5,33.12-9,6-18.64,5.91-27.81.26C165.61,339.81,165.63,327.87,167.47,314.48Zm67.36-10.19c17.7-10.74,32.74-24.94,51.08-41.44-2.64,21-6.08,37.59-20.38,50-4.2,3.64-7,8.84-11,12.75-3.26,3.18-3.15,12.19-9.84,8.94-5.84-2.83-13.51-6.1-14.68-14C229.13,314.81,227.9,308.49,234.82,304.29Zm-69-187.48c18,2.18,36.6-1,54.91-.68,33.74.57,49.84,13.7,57.76,46.47,2.64,10.94,4.57,22.09,6.13,33.25,1.5,10.7,2.1,21.52,3.37,35.16,1.79,7.47-2.44,15-9.87,22-18.11,17.2-36.94,33.26-58.38,46.38-17.88,10.93-35,11.42-53.21,1.47-27.61-15.09-50.56-35.76-71.77-58.6-10.66-11.47-9-25.57-6.26-38.79,5.15-24.62,17.77-45.66,31.08-67.11C131.91,116.5,145.5,114.35,165.81,116.81ZM362.92,499.68c-7-.14-327.24-.09-340.84,0-4.84,0-7.77-.67-7.57-6.83,2.41-74.61,83.91-115.2,95.29-119.72,2.9,18.18,6.38,36.13,8.37,54.25.89,8.1,4.63,11.06,11.55,13.39,42.1,14.19,84.29,14.39,125.77-1,11.08-4.12,19.69-14.54,24-26.57,2.5-7,3.6-14.49,5.68-21.66,1.13-3.89-.12-10.85,7.25-8.91a10.4,10.4,0,0,1,5.67,3.43c42.86,25.21,68.22,68.28,71.18,107C369.62,498,367.63,499.77,362.92,499.68Z"/><path class="07f82d4c-d312-4bba-a24b-f633a03ff4bf" d="M299.64,459.74q.44,1.26.78,2.54c.65-.51,1.3-1,2-1.51a2.26,2.26,0,0,1,.18-2.37C301.6,458.86,300.62,459.29,299.64,459.74Z"/><path class="07f82d4c-d312-4bba-a24b-f633a03ff4bf" d="M293.33,432.49a2.61,2.61,0,0,1-1.62-1.52,37.72,37.72,0,0,0-.81,5.72C291.66,435.26,292.45,433.84,293.33,432.49Z"/><path class="07f82d4c-d312-4bba-a24b-f633a03ff4bf" d="M293.91,444.6l0-.07a2.51,2.51,0,0,1-2.41-.93,22,22,0,0,0,2.55,5.87l1.36-1.48A2.26,2.26,0,0,1,293.91,444.6Z"/><path class="07f82d4c-d312-4bba-a24b-f633a03ff4bf" d="M297.72,414.73a2,2,0,0,1,.06-3.1l.63-.55-.48,0a2,2,0,0,1-1.77-.77q-.93,4.33-1.85,8.66A25.67,25.67,0,0,1,297.72,414.73Z"/><path class="07f82d4c-d312-4bba-a24b-f633a03ff4bf" d="M299.92,400.44l1.91,0q-1.48-1-3-1.86-.33,1.39-.65,2.79A2.14,2.14,0,0,1,299.92,400.44Z"/><path class="07f82d4c-d312-4bba-a24b-f633a03ff4bf" d="M294.88,425.09a2.11,2.11,0,0,1-1.7-.88q-.48,2.24-1,4.48C293,427.45,293.95,426.26,294.88,425.09Z"/></g><text class="294fcf00-ffa1-4a38-b444-aab8e6ac6d22" transform="translate(271.42 488.9)">JW</text></g></g></svg>