<svg xmlns="http://www.w3.org/2000/svg" viewBox="0 0 242.04 281.53"><defs><style>.\38 cd6ae4e-d236-490b-8c9f-b1fcecfbfefb{fill:#29abe2;}</style></defs><title>Asset 14</title><g id="e1754703-3f9e-4731-b6ad-ac7e17a1e08e" data-name="Layer 2"><g id="6a2acebf-6c0c-4439-a558-28b71248b4a2" data-name="Layer 1"><g id="1bd4a53b-5458-4a7d-947d-dbcc6d6a81fd" data-name="4JStau.tif"><path class="8cd6ae4e-d236-490b-8c9f-b1fcecfbfefb" d="M63.38,239.72c-17.16-2.75-24.55-14.91-28.9-30-1.05-3.64-1.9-7.36-3.23-10.91-5-13.29-5-13.27,4.78-22.66,12.71-12.16,37.85-17,53.83-9.4,6.37,3,13.35,5.5,18.46,10.81,2,2.05,4.22,1.22,6,.46a15.5,15.5,0,0,1,13,0c2.17.93,4.17.7,6.72-1.19,16.36-12.16,34.5-17.53,54.51-10.81,9,3,16.65,9.06,23.39,15.84,2.86,2.88,2.36,7.13.92,10.32-3.84,8.45-5.26,17.66-8.89,26.17-4.8,11.24-12.51,18.8-24.74,21.17-1.64.32-11.87,2.32-21.18,0-11.45-2.86-18.35-10.38-23.41-20.54-4-8.08-5.78-16.65-7.05-25.42-.56-3.84-2.31-6.3-6.52-6.35-4.37-.06-6.41,2.2-7.08,6.4-.82,5.16-1.51,10.42-3.12,15.36-4.73,14.55-11.74,26.8-28.5,30.7A46.26,46.26,0,0,1,63.38,239.72Zm108.1-71.1c-9.25-.19-17.87,1.41-25.4,6.1-8.47,5.28-14.48,12.38-13.4,23.45,1.22,12.51,5.51,23.14,15.2,31.89,10.47,9.47,32.13,9.48,42.21.1,12-11.2,14.77-25.09,14.65-40.39-.06-7.14-3.84-12-9.63-15.13A45.63,45.63,0,0,0,171.48,168.61Zm-100.67-.12a46.77,46.77,0,0,0-24.52,6.17c-5.65,3.1-9.12,7.88-9.35,14.75a63,63,0,0,0,6.32,30.49c9.49,19.34,34.24,22.24,47.92,12.38,12.78-9.21,18.4-22.85,17.7-38.76-.23-5.29-2.74-9.44-6.48-13.28C93.64,171.24,82.59,169,70.81,168.49Z"/></g><path d="M7.59,201.19s-30.57-135.93,31-173c98-59,156-11,183,14,40,37,9,144,9,144s-20-85-32-83c-25.61,4.27-28,21-71,22-46,1.07-61.87-23.85-84-15C33.59,114.19,7.59,201.19,7.59,201.19Z"/><path d="M95.21,279.85c3.15,1.34,6.38,1.75,8.7.08,3.74-2.7,7.32-2.62,12.51-.33a22.11,22.11,0,0,0,18.41-.14,12.09,12.09,0,0,0,2.44-1.5c.78-.62,1.27-1.45.25-2.46s-2-.6-2.87-.1c-8.91,5-20.62,2.76-28.4-5.45-3-3.2-5-6.7-5.19-10.6-.05-1.1-.22-2.23-1.84-2.43s-2.13,1-1.74,2c1.67,4.25-1.41,5.5-4.41,7.13C87.29,269.14,88.55,276.72,95.21,279.85Z"/></g></g></svg>