<svg xmlns="http://www.w3.org/2000/svg" xmlns:xlink="http://www.w3.org/1999/xlink" viewBox="0 0 359.6 126.89"><defs><style>.\30 4e843c6-d6ea-4c56-92fe-4d2e16266e3a{fill:url(#147a5a6e-8a62-4437-a7bc-ae182b6c4128);}.\32 3caba0e-5ec6-4e1f-bf55-0aad15507203,.c3e23056-85e4-4d31-8c46-3ceee0388043{fill:#fff;}.\32 3caba0e-5ec6-4e1f-bf55-0aad15507203{stroke:#fff;stroke-miterlimit:10;stroke-width:2px;}</style><linearGradient id="147a5a6e-8a62-4437-a7bc-ae182b6c4128" x1="0.48" y1="125.82" x2="126.3" gradientUnits="userSpaceOnUse"><stop offset="0.12" stop-color="#ffc229"/><stop offset="0.15" stop-color="#ecc73b"/><stop offset="0.32" stop-color="#89e397"/><stop offset="0.43" stop-color="#4af5d1"/><stop offset="0.49" stop-color="#32fce8"/><stop offset="0.54" stop-color="#45dce1"/><stop offset="0.61" stop-color="#5fb1d8"/><stop offset="0.69" stop-color="#748dd1"/><stop offset="0.76" stop-color="#8471cb"/><stop offset="0.84" stop-color="#905ec7"/><stop offset="0.92" stop-color="#9752c5"/><stop offset="1" stop-color="#994ec4"/></linearGradient></defs><title>Asset 2</title><g id="e5449f59-7aab-4cb6-b330-2c6f6e93fab4" data-name="Layer 2"><g id="c70a01bd-df3a-4cbf-a946-e96c9f812076" data-name="Layer 1"><path class="04e843c6-d6ea-4c56-92fe-4d2e16266e3a" d="M126.3,109.44H112.23V105h9.68V4.39H21.25V13.9H16.86V0H126.3ZM21.25,13.9H16.86V14m95.37,95.45V105M35.72,22.68a2.73,2.73,0,1,0,2.73,2.74A2.67,2.67,0,0,0,35.72,22.68ZM52.3,55.76a2.73,2.73,0,1,1-2.76,2.71A2.67,2.67,0,0,1,52.3,55.76Zm-13.86,2.7a2.72,2.72,0,1,1-2.78-2.69A2.67,2.67,0,0,1,38.44,58.46ZM35.7,39.22A2.72,2.72,0,1,1,33,42,2.67,2.67,0,0,1,35.7,39.22ZM55,42a2.72,2.72,0,1,1-2.71-2.75A2.67,2.67,0,0,1,55,42ZM38.45,75a2.72,2.72,0,1,1-2.77-2.71A2.68,2.68,0,0,1,38.45,75ZM19.17,55.76a2.72,2.72,0,1,1-2.72,2.75A2.68,2.68,0,0,1,19.17,55.76ZM68.79,44.67a2.72,2.72,0,1,1,2.74-2.73A2.68,2.68,0,0,1,68.79,44.67Zm-49.59,0a2.72,2.72,0,1,1,2.71-2.77A2.67,2.67,0,0,1,19.2,44.67ZM55,25.39a2.73,2.73,0,1,1-2.76-2.71A2.68,2.68,0,0,1,55,25.39Zm13.82-2.71a2.73,2.73,0,1,1-2.74,2.74A2.68,2.68,0,0,1,68.81,22.68Zm0,38.53a2.73,2.73,0,1,1,2.7-2.78A2.68,2.68,0,0,1,68.84,61.21ZM16.45,75a2.73,2.73,0,1,1,2.73,2.74A2.68,2.68,0,0,1,16.45,75Zm0-49.63a2.73,2.73,0,1,1,2.73,2.75A2.68,2.68,0,0,1,16.45,25.38ZM55,75a2.73,2.73,0,1,1-2.74-2.73A2.68,2.68,0,0,1,55,75Zm16.55.05a2.73,2.73,0,1,1-2.7-2.79A2.69,2.69,0,0,1,71.53,75.08Zm33.26-49.66a2.72,2.72,0,1,1-2.73-2.74A2.68,2.68,0,0,1,104.79,25.42Zm0,33A2.72,2.72,0,1,1,102,55.76,2.67,2.67,0,0,1,104.79,58.46ZM102,39.22A2.72,2.72,0,1,1,99.35,42,2.67,2.67,0,0,1,102,39.22ZM104.79,75A2.72,2.72,0,1,1,102,72.3,2.68,2.68,0,0,1,104.79,75ZM85.52,55.76a2.72,2.72,0,1,1-2.72,2.75A2.68,2.68,0,0,1,85.52,55.76Zm0-11.09a2.72,2.72,0,1,1,2.71-2.77A2.67,2.67,0,0,1,85.55,44.67ZM82.8,75a2.73,2.73,0,1,1,2.73,2.74A2.68,2.68,0,0,1,82.8,75Zm0-49.63a2.73,2.73,0,1,1,2.73,2.75A2.68,2.68,0,0,1,82.8,25.38ZM38.44,91.1a2.72,2.72,0,1,1-2.73-2.74A2.68,2.68,0,0,1,38.44,91.1ZM52.3,121.44a2.73,2.73,0,1,1-2.76,2.71A2.67,2.67,0,0,1,52.3,121.44Zm-13.86,2.7a2.72,2.72,0,1,1-2.78-2.69A2.67,2.67,0,0,1,38.44,124.14ZM35.7,104.9a2.72,2.72,0,1,1-2.7,2.77A2.67,2.67,0,0,1,35.7,104.9ZM55,107.66a2.72,2.72,0,1,1-2.71-2.75A2.67,2.67,0,0,1,55,107.66ZM19.17,121.44a2.72,2.72,0,1,1-2.72,2.75A2.68,2.68,0,0,1,19.17,121.44Zm49.62-11.09a2.72,2.72,0,1,1,2.74-2.73A2.68,2.68,0,0,1,68.79,110.35Zm-49.59,0a2.72,2.72,0,1,1,2.71-2.77A2.67,2.67,0,0,1,19.2,110.35ZM55,91.07a2.73,2.73,0,1,1-2.76-2.71A2.68,2.68,0,0,1,55,91.07Zm13.82-2.71a2.73,2.73,0,1,1-2.74,2.74A2.68,2.68,0,0,1,68.81,88.36Zm0,38.53a2.73,2.73,0,1,1,2.7-2.78A2.68,2.68,0,0,1,68.84,126.89ZM16.45,91.07a2.73,2.73,0,1,1,2.73,2.75A2.68,2.68,0,0,1,16.45,91.07Zm88.34,0a2.72,2.72,0,1,1-2.73-2.74A2.68,2.68,0,0,1,104.79,91.1Zm0,33a2.72,2.72,0,1,1-2.78-2.69A2.67,2.67,0,0,1,104.79,124.14ZM102,104.9a2.72,2.72,0,1,1-2.7,2.77A2.67,2.67,0,0,1,102,104.9ZM85.52,121.44a2.72,2.72,0,1,1-2.72,2.75A2.68,2.68,0,0,1,85.52,121.44Zm0-11.09a2.72,2.72,0,1,1,2.71-2.77A2.67,2.67,0,0,1,85.55,110.35ZM82.8,91.07a2.73,2.73,0,1,1,2.73,2.75A2.68,2.68,0,0,1,82.8,91.07ZM2.72,55.76a2.72,2.72,0,0,1,0,5.45,2.72,2.72,0,1,1,0-5.45Zm0-11.09a2.72,2.72,0,0,1-.08-5.45,2.72,2.72,0,1,1,.08,5.45ZM0,75A2.68,2.68,0,0,1,2.76,72.3a2.73,2.73,0,0,1,0,5.46A2.68,2.68,0,0,1,0,75ZM0,25.38a2.68,2.68,0,0,1,2.77-2.71,2.73,2.73,0,0,1,0,5.46A2.68,2.68,0,0,1,0,25.38Zm2.72,96.06a2.72,2.72,0,0,1,0,5.45,2.72,2.72,0,1,1,0-5.45Zm0-11.09a2.72,2.72,0,0,1-.08-5.45,2.72,2.72,0,1,1,.08,5.45ZM0,91.07a2.68,2.68,0,0,1,2.77-2.71,2.73,2.73,0,0,1,0,5.46A2.68,2.68,0,0,1,0,91.07Z"/><path class="c3e23056-85e4-4d31-8c46-3ceee0388043" d="M246,36.55l-1.84,3.69-8-16h3.66ZM268.2,24.24,258.36,43.9l-6.19-12.32L254,27.9l4.35,8.65,6.17-12.32Z"/><path class="c3e23056-85e4-4d31-8c46-3ceee0388043" d="M285.36,24.24V43.9h-3.27V35.72h-9.83V43.9H269V35.72l3.27-3.29h9.83V24.24Z"/><path class="c3e23056-85e4-4d31-8c46-3ceee0388043" d="M297.31,40.61,294,43.9V24.24l3.27,3.25Z"/><path class="c3e23056-85e4-4d31-8c46-3ceee0388043" d="M312.23,24.24v3.29h-6.54V43.9H302.4V24.24Z"/><path class="c3e23056-85e4-4d31-8c46-3ceee0388043" d="M330.35,24.24v3.29h-9.83l-3.27-3.29Zm-9.83,8.21h9.83v3.27h-13.1V32.45Zm0,8.16h9.83V43.9h-13.1v-.27Z"/><path class="c3e23056-85e4-4d31-8c46-3ceee0388043" d="M236.17,64.24,246,74.07l9.83-9.83V83.9h-3.24V72.15L246,78.72l-9.86-9.91Z"/><path class="c3e23056-85e4-4d31-8c46-3ceee0388043" d="M271.08,80.61,269.4,83.9h-3.64l9.83-19.67,6.56,13.13h-3.69l-2.88-5.78-2.9,5.78Zm14.36,3.29h-3.66l-1.62-3.27h3.64Z"/><path class="c3e23056-85e4-4d31-8c46-3ceee0388043" d="M300.09,64.24v3.29h-6.54V83.9h-3.29V64.24Z"/><path class="c3e23056-85e4-4d31-8c46-3ceee0388043" d="M316,76.85l4,7.05h-3.76L310.56,74l2.93,0a3.31,3.31,0,0,0,3.27-3.29,3.06,3.06,0,0,0-1-2.29,3.12,3.12,0,0,0-2.29-1h-6.56l-.37-.37-1.7-2.93h8.63A6.55,6.55,0,0,1,320,70.78a6.21,6.21,0,0,1-1.16,3.71A6.34,6.34,0,0,1,316,76.85Z"/><path class="c3e23056-85e4-4d31-8c46-3ceee0388043" d="M331.75,80.61l-3.27,3.29V64.24l3.27,3.25Z"/><path class="c3e23056-85e4-4d31-8c46-3ceee0388043" d="M346.63,71.42l-2.06,2.65-7.72-9.83H341Zm-2.06,2.65,2.06,2.66L341,83.9h-4.2Zm4.15,0-2.09-2.65,5.6-7.18h4.15Zm0,0,7.67,9.83h-4.15l-5.6-7.18Z"/><line class="23caba0e-5ec6-4e1f-bf55-0aad15507203" x1="188.3" y1="16.36" x2="188.3" y2="110.54"/><path class="c3e23056-85e4-4d31-8c46-3ceee0388043" d="M239.15,105.7l-1.93-6.29a2.58,2.58,0,0,0-.45-1,.92.92,0,0,0-.6-.16v-.65h3.62v.65q-.65,0-.65.4a1.91,1.91,0,0,0,.09.54l1.11,3.54L242,97.59h.91l2,5.13.89-3.22a2.44,2.44,0,0,0,.1-.57q0-.69-.78-.69v-.65h2.54v.65a.87.87,0,0,0-.62.25,4.06,4.06,0,0,0-.62,1.5l-1.59,5.71h-.91l-2.07-5.33-1.78,5.33Z"/><path class="c3e23056-85e4-4d31-8c46-3ceee0388043" d="M253.38,101.73v2.19a1.14,1.14,0,0,0,.19.76,1.17,1.17,0,0,0,.83.21v.65h-4.14v-.65a1.26,1.26,0,0,0,.83-.2,1.07,1.07,0,0,0,.21-.78v-4.7a1.12,1.12,0,0,0-.2-.77,1.22,1.22,0,0,0-.85-.21v-.65h4.14v.65a1.2,1.2,0,0,0-.82.2,1.1,1.1,0,0,0-.2.77V101h3.26V99.22a1.15,1.15,0,0,0-.19-.76,1.13,1.13,0,0,0-.82-.21v-.65h4.13v.65a1.29,1.29,0,0,0-.84.19,1.07,1.07,0,0,0-.21.78v4.7a1.11,1.11,0,0,0,.2.77,1.24,1.24,0,0,0,.85.2v.65h-4.13v-.65a1.15,1.15,0,0,0,.81-.21,1.12,1.12,0,0,0,.2-.77v-2.19Z"/><path class="c3e23056-85e4-4d31-8c46-3ceee0388043" d="M262.78,98.24v-.65H267v.65h-.12a1,1,0,0,0-.77.22,1.21,1.21,0,0,0-.18.75v4.7a1.18,1.18,0,0,0,.18.76,1,1,0,0,0,.76.21H267v.65h-4.2v-.65a1.29,1.29,0,0,0,.84-.19,1.07,1.07,0,0,0,.21-.78v-4.7a1.12,1.12,0,0,0-.2-.77A1.24,1.24,0,0,0,262.78,98.24Z"/><path class="c3e23056-85e4-4d31-8c46-3ceee0388043" d="M273,98.3h-.67a2.24,2.24,0,0,0-.88.13,1,1,0,0,0-.47.51,2.47,2.47,0,0,0-.23.91h-.66V97.59h8v2.26h-.66a2.38,2.38,0,0,0-.53-1.23,1.55,1.55,0,0,0-1.08-.32h-.69v5.61a1.18,1.18,0,0,0,.18.76,1,1,0,0,0,.78.21h.21v.65h-4.39v-.65H272a1,1,0,0,0,.78-.22,1.21,1.21,0,0,0,.18-.75Z"/><path class="c3e23056-85e4-4d31-8c46-3ceee0388043" d="M284.21,101.74v2a2.6,2.6,0,0,0,.06.74.56.56,0,0,0,.35.29,2.41,2.41,0,0,0,.86.11,2.57,2.57,0,0,0,1.15-.19,1.75,1.75,0,0,0,.66-.68,3.63,3.63,0,0,0,.42-1h.66l-.05,2.61H281v-.65h.15a1,1,0,0,0,.77-.22,1.21,1.21,0,0,0,.18-.75V99.2a1.18,1.18,0,0,0-.18-.76,1,1,0,0,0-.76-.21H281v-.64h6.77l.12,2.06h-.66a3.45,3.45,0,0,0-.39-.86,1.07,1.07,0,0,0-.44-.41,2.13,2.13,0,0,0-.74-.09h-1.48V101h.74a.92.92,0,0,0,.7-.2,1.34,1.34,0,0,0,.2-.79h.66v2.7h-.66q0-.08,0-.11a1.31,1.31,0,0,0-.14-.62q-.14-.28-.74-.28Z"/><path class="c3e23056-85e4-4d31-8c46-3ceee0388043" d="M301.53,105.54l-3-6.19v4.11a3.14,3.14,0,0,0,.08.81.8.8,0,0,0,.35.44,1.21,1.21,0,0,0,.68.18v.65h-2.86v-.65a1.09,1.09,0,0,0,.65-.2.79.79,0,0,0,.34-.45,3.85,3.85,0,0,0,.06-.82V99.24a1.13,1.13,0,0,0-.21-.8,1.25,1.25,0,0,0-.84-.2v-.65H300l2.45,5.22,2.47-5.22h3.19v.65H308a1,1,0,0,0-.78.22,1.21,1.21,0,0,0-.18.75v4.7a1.18,1.18,0,0,0,.18.76,1,1,0,0,0,.77.21h.18v.65h-4.32v-.65H304a1,1,0,0,0,.77-.22,1.21,1.21,0,0,0,.18-.75V99.24L302,105.54Z"/><path class="c3e23056-85e4-4d31-8c46-3ceee0388043" d="M312.71,103.39l-.15.39a1.93,1.93,0,0,0-.16.59.43.43,0,0,0,.19.4,1.31,1.31,0,0,0,.63.11v.65h-2.62v-.65q.75,0,1.26-1.28l2.44-6.16H315l2.49,6.15a2.47,2.47,0,0,0,.67,1.1,1.1,1.1,0,0,0,.57.18v.65h-3.94v-.65a1.29,1.29,0,0,0,.66-.1.32.32,0,0,0,.13-.26.94.94,0,0,0-.11-.37l-.08-.18-.23-.58Zm.25-.67h1.93l-1-2.37Z"/><path class="c3e23056-85e4-4d31-8c46-3ceee0388043" d="M323.55,98.3h-.67a2.24,2.24,0,0,0-.88.13,1,1,0,0,0-.47.51,2.47,2.47,0,0,0-.23.91h-.66V97.59h8v2.26h-.66a2.38,2.38,0,0,0-.53-1.23,1.55,1.55,0,0,0-1.08-.32h-.69v5.61a1.18,1.18,0,0,0,.18.76,1,1,0,0,0,.78.21h.21v.65H322.4v-.65h.19a1,1,0,0,0,.78-.22,1.21,1.21,0,0,0,.18-.75Z"/><path class="c3e23056-85e4-4d31-8c46-3ceee0388043" d="M334.76,102v1.88a1.17,1.17,0,0,0,.19.76,1,1,0,0,0,.77.21h.14v.65h-4.28v-.65h.16a1,1,0,0,0,.78-.22,1.21,1.21,0,0,0,.18-.75v-4.7a1.17,1.17,0,0,0-.19-.76,1,1,0,0,0-.77-.21h-.16v-.65h3.9a12.11,12.11,0,0,1,1.55.07,2.76,2.76,0,0,1,1,.34,2,2,0,0,1,.75.73,1.93,1.93,0,0,1,.27,1,2,2,0,0,1-1.61,1.94,6.35,6.35,0,0,1,1.33,1.69,6.24,6.24,0,0,0,1,1.32,1.07,1.07,0,0,0,.66.23v.65H337.9a17.11,17.11,0,0,1-1.26-2.05,10.28,10.28,0,0,0-.65-1.07.87.87,0,0,0-.38-.31A3.4,3.4,0,0,0,334.76,102Zm0-.71a4.26,4.26,0,0,0,1.34-.12,1.05,1.05,0,0,0,.54-.47,1.85,1.85,0,0,0,.2-.93,1.43,1.43,0,0,0-.4-1.16,2.2,2.2,0,0,0-1.36-.32h-.32Z"/><path class="c3e23056-85e4-4d31-8c46-3ceee0388043" d="M343.05,98.24v-.65h4.2v.65h-.12a1,1,0,0,0-.77.22,1.21,1.21,0,0,0-.18.75v4.7a1.18,1.18,0,0,0,.18.76,1,1,0,0,0,.76.21h.12v.65h-4.2v-.65a1.29,1.29,0,0,0,.84-.19,1.07,1.07,0,0,0,.21-.78v-4.7a1.12,1.12,0,0,0-.2-.77A1.24,1.24,0,0,0,343.05,98.24Z"/><path class="c3e23056-85e4-4d31-8c46-3ceee0388043" d="M354.29,102.46l-1.24,1.35a1,1,0,0,0-.32.6.41.41,0,0,0,.18.35,1.41,1.41,0,0,0,.74.13v.65h-3.49v-.65a1.92,1.92,0,0,0,.88-.21,4.16,4.16,0,0,0,1-.89l1.76-1.9-1.78-2.3a6.9,6.9,0,0,0-1-1.13,1.59,1.59,0,0,0-.91-.2v-.65h4.48v.65a1.53,1.53,0,0,0-.54.06.23.23,0,0,0-.13.23.83.83,0,0,0,.19.49l1.1,1.41,1.21-1.34a.79.79,0,0,0,.24-.5q0-.35-.76-.35v-.65h3.18v.65a2.27,2.27,0,0,0-1,.33,6,6,0,0,0-1,.93L355.71,101l1.85,2.43a5.19,5.19,0,0,0,1.18,1.26,1.74,1.74,0,0,0,.85.21v.65h-4.85v-.65a1.84,1.84,0,0,0,.8-.1.34.34,0,0,0,.16-.3.88.88,0,0,0-.22-.52Z"/></g></g></svg>